<?xml version="1.0" encoding="utf-8"?>
<!-- Generator: Adobe Illustrator 26.0.0, SVG Export Plug-In . SVG Version: 6.00 Build 0)  -->
<svg version="1.1" id="Capa_1" xmlns="http://www.w3.org/2000/svg" xmlns:xlink="http://www.w3.org/1999/xlink" x="0px" y="0px"
	 viewBox="0 0 50 50" style="enable-background:new 0 0 50 50;" xml:space="preserve">
<style type="text/css">
	.st0{fill:#F8FFFF;}
</style>
<path class="st0" d="M16,3C8.8,3,3,8.8,3,16v18c0,7.2,5.8,13,13,13h18c7.2,0,13-5.8,13-13V16c0-7.2-5.8-13-13-13H16z M16,5h18
	c6.1,0,11,4.9,11,11v18c0,6.1-4.9,11-11,11H16C9.9,45,5,40.1,5,34V16C5,9.9,9.9,5,16,5z M37,11c-1.1,0-2,0.9-2,2s0.9,2,2,2
	s2-0.9,2-2S38.1,11,37,11z M25,14c-6.1,0-11,4.9-11,11s4.9,11,11,11s11-4.9,11-11S31.1,14,25,14z M25,16c5,0,9,4,9,9s-4,9-9,9
	s-9-4-9-9S20,16,25,16z"/>
</svg>
