<?xml version="1.0" encoding="utf-8"?>
<!-- Generator: Adobe Illustrator 26.0.0, SVG Export Plug-In . SVG Version: 6.00 Build 0)  -->
<svg version="1.1" id="Capa_1" xmlns="http://www.w3.org/2000/svg" xmlns:xlink="http://www.w3.org/1999/xlink" x="0px" y="0px"
	 viewBox="0 0 24 24" style="enable-background:new 0 0 24 24;" xml:space="preserve">
<style type="text/css">
	.st0{fill:#F8FFFF;}
</style>
<path class="st0" d="M12,2C6.5,2,2,6.5,2,12s4.5,10,10,10s10-4.5,10-10S17.5,2,12,2z M12,4c4.4,0,8,3.6,8,8c0,4-2.9,7.3-6.8,7.9
	v-5.5h2.3l0.4-2.4h-2.7v-1.3c0-1,0.3-1.9,1.2-1.9h1.5V6.8c-0.3,0-0.8-0.1-1.8-0.1c-2.2,0-3.4,1.1-3.4,3.7V12H8.4v2.4h2.2v5.5
	C6.9,19.2,4,16,4,12C4,7.6,7.6,4,12,4z"/>
</svg>
