<?xml version="1.0" encoding="utf-8"?>
<!-- Generator: Adobe Illustrator 26.0.0, SVG Export Plug-In . SVG Version: 6.00 Build 0)  -->
<svg version="1.1" id="Capa_1" xmlns="http://www.w3.org/2000/svg" xmlns:xlink="http://www.w3.org/1999/xlink" x="0px" y="0px"
	 viewBox="0 0 50 50" style="enable-background:new 0 0 50 50;" xml:space="preserve">
<style type="text/css">
	.st0{fill:#F8FFFF;}
</style>
<g>
	<g transform="scale(5.12,5.12)">
		<path class="st0" d="M9.8,2C9.4,2.2,9,2.3,8.6,2.4C9,2.1,9.4,1.7,9.5,1.2C9.1,1.5,8.7,1.6,8.2,1.7C7.9,1.3,7.3,1.1,6.8,1.1
			c-1.1,0-2,0.9-2,2c0,0.2,0,0.3,0.1,0.5C3.1,3.5,1.7,2.7,0.7,1.5c-0.2,0.3-0.3,0.6-0.3,1c0,0.7,0.4,1.3,0.9,1.7
			C1,4.1,0.7,4,0.4,3.9c0,0,0,0,0,0c0,1,0.7,1.8,1.6,2C1.8,5.9,1.6,6,1.5,6c-0.1,0-0.3,0-0.4,0c0.3,0.8,1,1.4,1.9,1.4
			C2.3,7.9,1.4,8.2,0.5,8.2c-0.2,0-0.3,0-0.5,0c0.9,0.6,1.9,0.9,3.1,0.9c3.7,0,5.7-3.1,5.7-5.7c0-0.1,0-0.2,0-0.3
			C9.2,2.8,9.5,2.4,9.8,2z"/>
	</g>
</g>
</svg>
